<?xml version="1.0" encoding="UTF-8" standalone="no"?>
<svg
   xmlns:dc="http://purl.org/dc/elements/1.1/"
   xmlns:cc="http://creativecommons.org/ns#"
   xmlns:rdf="http://www.w3.org/1999/02/22-rdf-syntax-ns#"
   xmlns:svg="http://www.w3.org/2000/svg"
   xmlns="http://www.w3.org/2000/svg"
   viewBox="0 0 85.333336 85.333336"
   height="85.333336"
   width="85.333336"
   xml:space="preserve"
   id="svg2"
   version="1.1"><metadata
     id="metadata8"><rdf:RDF><cc:Work
         rdf:about=""><dc:format>image/svg+xml</dc:format><dc:type
           rdf:resource="http://purl.org/dc/dcmitype/StillImage" /></cc:Work></rdf:RDF></metadata><defs
     id="defs6" /><g
     transform="matrix(1.3333333,0,0,-1.3333333,0,85.333333)"
     id="g10"><g
       transform="scale(0.1)"
       id="g12"><path
         id="path14"
         style="fill:#589da8;fill-opacity:1;fill-rule:nonzero;stroke:none"
         d="M 640,320 C 640,143.262 496.738,0 320,0 143.262,0 0,143.262 0,320 0,496.738 143.262,640 320,640 496.738,640 640,496.738 640,320" /><path
         id="path16"
         style="fill:#4f6366;fill-opacity:1;fill-rule:nonzero;stroke:none"
         d="M 510,254.055 C 510,240.77 499.23,230 485.945,230 H 154.055 C 140.77,230 130,240.77 130,254.055 v 221.89 C 130,489.234 140.77,500 154.055,500 h 331.89 C 499.23,500 510,489.234 510,475.945 v -221.89" /><path
         id="path18"
         style="fill:#f5f5e6;fill-opacity:1;fill-rule:nonzero;stroke:none"
         d="M 480,260 H 160 V 470 H 480 V 260" /><path
         id="path20"
         style="fill:#4f6366;fill-opacity:1;fill-rule:nonzero;stroke:none"
         d="m 399.98,150 -19.289,12.859 c -6.687,4.465 -10.703,11.965 -10.703,20.012 V 210 h -100 v -27.141 c 0,-8.035 -4.019,-15.546 -10.711,-20.007 L 239.988,150 H 240 v -10 h 160 v 10 h -0.02" /><path
         id="path22"
         style="fill:#f5bb3d;fill-opacity:1;fill-rule:evenodd;stroke:none"
         d="M 480,260 H 160 v 60 l 70,50 80,-50 100,90 70,-60 v -90" /></g></g></svg>